<svg xmlns="http://www.w3.org/2000/svg" xmlns:xlink="http://www.w3.org/1999/xlink" version="1.1" x="0px" y="0px" viewBox="0 0 199.121 372.745" style="enable-background:new 0 0 199.121 298.196;" xml:space="preserve"><g><path d="M19.362,149.873c0.251,3.658,2.929,6.57,6.353,7.279l-2.893-14.422C20.566,144.281,19.16,146.945,19.362,149.873z"/><path d="M113.124,187.966c0-17.123,9.839-31.982,24.153-39.25v-18.423c1.221,0.969,2.517,2.405,3.836,4.657   c1.393,2.42,2.75,5.909,3.687,10.786c3.913-1.143,8.044-1.768,12.321-1.768c1.229,0,2.442,0.063,3.646,0.162   c-0.524-3.057-1.196-5.859-2.009-8.42c-3.07-9.817-8.435-16.241-14.007-19.7c-1.075-0.675-2.14-1.237-3.178-1.71   c0.166-10.777-3.423-24.265-6.938-31.332c-0.131,0.723-0.371,1.405-0.717,2.045c0.982,3.729,1.101,7.74,0.167,11.75   c-1.509,6.481-5.459,11.812-10.74,15.153c-3.808,2.409-8.302,3.791-13.094,3.791c-1.865,0-3.741-0.215-5.574-0.643   c-2.704-0.63-5.219-1.713-7.501-3.148c-3.099-1.949-5.753-4.568-7.744-7.766c-3.457-5.556-4.543-12.123-3.059-18.496   c0.108-0.464,0.247-0.913,0.379-1.364c-0.276-0.687-0.438-1.418-0.479-2.192c-4.336,8.052-9.038,26.552-6.826,38.147   c-2.317,2.107-5.457,4.657-9.456,7.247c-8.161,5.277-19.8,10.722-35.387,12.999l3.15,15.703   c18.35-2.822,32.344-9.516,42.021-15.988c1.206-0.807,2.332-1.605,3.408-2.396v40.834l-8.922,106.152   c-0.571,6.805,4.482,12.785,11.284,13.355c6.805,0.572,12.786-4.48,13.357-11.283l6.927-82.41h8.799l6.927,82.41   c0.571,6.803,6.553,11.855,13.357,11.283c6.802-0.57,11.856-6.551,11.284-13.355l-4.682-55.703   C124.94,222.783,113.124,206.73,113.124,187.966z"/><path d="M161.084,146.16c-1.305-0.123-2.625-0.191-3.962-0.191c-4.163,0-8.18,0.613-11.977,1.742   c-0.65,0.193-1.294,0.402-1.931,0.625c-1.345,0.473-2.658,1.008-3.936,1.609c-0.677,0.318-1.345,0.65-2.001,1.002   c-13.186,7.084-22.153,21.002-22.153,37.02c0,17.607,10.841,32.676,26.208,38.916c4.876,1.98,10.203,3.082,15.79,3.082   c23.195,0,41.998-18.803,41.998-41.998C199.121,166.107,182.42,148.156,161.084,146.16z M161.896,154.978   c14.93,2.141,26.66,14.172,28.345,29.246h-13.48c-1.464-7.729-7.37-13.867-14.966-15.688c-0.309-0.074-0.616-0.148-0.93-0.209   v-13.48C161.21,154.884,161.554,154.929,161.896,154.978z M137.278,161.183c0.648-0.48,1.318-0.934,2.001-1.367   c1.493-0.947,3.063-1.785,4.704-2.49c0.648-0.277,1.307-0.533,1.975-0.771c2.363-0.84,4.849-1.42,7.423-1.707v13.48   c-2.884,0.547-5.541,1.715-7.843,3.355c-0.768,0.547-1.494,1.146-2.176,1.793c-1.642,1.561-3.015,3.393-4.054,5.43   c-0.714,1.4-1.264,2.895-1.634,4.461c-0.066,0.285-0.135,0.568-0.189,0.857h-13.48   C125.058,174.796,130.039,166.558,137.278,161.183z M140.489,216.845c-8.955-5.168-15.281-14.375-16.484-25.137h13.48   c0.27,1.424,0.681,2.797,1.235,4.096c0.648,1.521,1.496,2.934,2.483,4.234c2.934,3.861,7.226,6.627,12.177,7.564v2.162v11.318   C148.725,220.562,144.363,219.081,140.489,216.845z M160.865,221.083v-13.48c8.042-1.523,14.372-7.854,15.896-15.895h13.48   C188.517,207.124,176.282,219.359,160.865,221.083z"/><path d="M101.455,111.916c1.171,0.494,2.396,0.902,3.677,1.2c4.824,1.123,9.646,0.599,13.88-1.2   c6.386-2.714,11.436-8.331,13.13-15.607c0.732-3.14,0.76-6.277,0.199-9.254c-4.142,4.022-13.015,5.877-21.835,5.877   c-9.153,0-18.363-1.997-22.283-6.34C85.984,97.249,91.706,107.798,101.455,111.916z"/><path d="M88.887,84.114c4.879,8.888,36.818,9.08,42.873,0.579c0.639-0.896,0.995-1.889,0.995-2.979   c0-0.035-0.003-0.069-0.003-0.104c-0.003-0.647-0.036-1.287-0.093-1.92c-1.023-11.34-10.549-20.226-22.154-20.226   c-11.358,0-20.723,8.513-22.075,19.505c-0.055,0.441-0.098,0.886-0.126,1.335c-0.029,0.467-0.049,0.936-0.049,1.41   C88.255,82.576,88.481,83.374,88.887,84.114z"/><path d="M19.822,76.969c1.548-0.994,1.756-2.016,1.756-2.016l-3.723-14.638c0,0-4.49-2.942-2.973-14.787S0.273,0,0.273,0   s-1.857,37.299,4.12,47.637c5.975,10.338,2.973,14.787,2.973,14.787l2.224,14.939c0,0,0.586,0.861,2.394,1.18l12.688,63.244   l3.113,15.52L50.72,271.634l-0.56,0.111l1.35,6.721c-2.674,2.205-4.08,5.772-3.348,9.408c1.056,5.256,6.173,8.66,11.429,7.604   c5.257-1.057,8.661-6.176,7.604-11.43c-0.731-3.637-3.407-6.383-6.727-7.385l-1.35-6.719l-0.561,0.113L35.775,156.49l-3.156-15.732   L19.822,76.969z M7.564,36.268c-1.48,0.298-2.92-0.66-3.217-2.139c-0.298-1.48,0.659-2.92,2.141-3.218   c1.479-0.298,2.919,0.659,3.217,2.14C10.001,34.531,9.045,35.971,7.564,36.268z M59.918,285.511   c1.234-0.248,2.037-1.455,1.788-2.689l-0.701-3.486c1.968,0.99,3.479,2.836,3.951,5.162c0.801,4.021-1.797,7.926-5.814,8.742   c-4.021,0.801-7.925-1.797-8.742-5.814c-0.462-2.328,0.217-4.613,1.648-6.287l0.701,3.484c0.248,1.236,1.452,2.037,2.69,1.789   L59.918,285.511z"/></g><text x="0" y="313.196" fill="#000000" font-size="5px" font-weight="bold" font-family="'Helvetica Neue', Helvetica, Arial-Unicode, Arial, Sans-serif">Created by Gan Khoon Lay</text><text x="0" y="318.196" fill="#000000" font-size="5px" font-weight="bold" font-family="'Helvetica Neue', Helvetica, Arial-Unicode, Arial, Sans-serif">from the Noun Project</text></svg>